# xmcd
#
# Track frame offsets:
#	150
#	17732
#	32537
#	45440
#	62422
#	74310
#	92507
#	107722
#	119485
#	137815
#	152135
#	168485
#	181865
#	196102
#
# Disc length: 2845 seconds
#
# Revision: 2
# Processed by: cddbd v1.5.2PL0 Copyright (c) Steve Scherf et al.
# Submitted via: EasyCDDAExtractor 16.0.6.1
#
DISCID=b00b1b0e
DTITLE=R.D. Countryband - R.D.'s Back
DYEAR=1992
DGENRE=Country
TTITLE0=R.D.'s Back
TTITLE1=Sorry To Disturb You
TTITLE2=Don't Tell Your Mama
TTITLE3=This Ol' Life Of Mine
TTITLE4=Square Dancin' Angel
TTITLE5=Back To Zero Again
TTITLE6=Waitin' For Miracles
TTITLE7=Heatwave On The Run
TTITLE8=I'm A One Dollar Man
TTITLE9=Like The Waves Of The Ocean
TTITLE10=Heartgoal Hotel
TTITLE11=You Pay The Price
TTITLE12=Joshua Sloane
TTITLE13=We Still Play Hank William Songs
EXTD=Dreamland Studio, Nibe 1992
EXTT0=
EXTT1=
EXTT2=
EXTT3=
EXTT4=
EXTT5=
EXTT6=
EXTT7=
EXTT8=
EXTT9=
EXTT10=
EXTT11=
EXTT12=
EXTT13=
PLAYORDER=
